<mxfile host="app.diagrams.net" modified="2021-03-26T09:40:36.597Z" agent="5.0 (Windows)" etag="AmNbaWzo5i2hEc1_jA9t" version="14.4.9" type="github">
  <diagram id="nkPKvmHnwkxYXrD0md_3" name="Page-1">
    <mxGraphModel dx="875" dy="683" grid="1" gridSize="10" guides="1" tooltips="1" connect="1" arrows="1" fold="1" page="1" pageScale="1" pageWidth="827" pageHeight="1169" math="0" shadow="0">
      <root>
        <mxCell id="0" />
        <mxCell id="1" parent="0" />
        <mxCell id="0H6CYzsqwwpuN_xPtlE3-65" value="Developement of new model" style="shape=umlFrame;whiteSpace=wrap;html=1;width=180;height=30;" vertex="1" parent="1">
          <mxGeometry x="30" y="920" width="730" height="340" as="geometry" />
        </mxCell>
        <mxCell id="0H6CYzsqwwpuN_xPtlE3-73" value="Git Repository" style="html=1;fontStyle=1;verticalAlign=top;" vertex="1" parent="1">
          <mxGeometry x="420" y="950" width="210" height="300" as="geometry" />
        </mxCell>
        <mxCell id="0H6CYzsqwwpuN_xPtlE3-72" value="Own Environment" style="html=1;fontStyle=1;verticalAlign=top;" vertex="1" parent="1">
          <mxGeometry x="210" y="950" width="200" height="300" as="geometry" />
        </mxCell>
        <mxCell id="0H6CYzsqwwpuN_xPtlE3-48" value="Database administration" style="shape=umlFrame;whiteSpace=wrap;html=1;width=90;height=40;" vertex="1" parent="1">
          <mxGeometry x="30" y="620" width="600" height="270" as="geometry" />
        </mxCell>
        <mxCell id="0H6CYzsqwwpuN_xPtlE3-71" value="Database" style="html=1;fontStyle=1;verticalAlign=top;" vertex="1" parent="1">
          <mxGeometry x="210" y="630" width="210" height="250" as="geometry" />
        </mxCell>
        <mxCell id="0H6CYzsqwwpuN_xPtlE3-69" value="Database" style="html=1;fontStyle=1;verticalAlign=top;" vertex="1" parent="1">
          <mxGeometry x="490" y="60" width="230" height="460" as="geometry" />
        </mxCell>
        <mxCell id="0H6CYzsqwwpuN_xPtlE3-20" value="SANElib DTC" style="shape=umlFrame;whiteSpace=wrap;html=1;" vertex="1" parent="1">
          <mxGeometry x="30" y="20" width="710" height="510" as="geometry" />
        </mxCell>
        <mxCell id="0H6CYzsqwwpuN_xPtlE3-67" value="SANElib Package" style="html=1;fontStyle=1;verticalAlign=top;" vertex="1" parent="1">
          <mxGeometry x="130" y="60" width="350" height="460" as="geometry" />
        </mxCell>
        <mxCell id="0H6CYzsqwwpuN_xPtlE3-17" style="edgeStyle=orthogonalEdgeStyle;rounded=0;orthogonalLoop=1;jettySize=auto;html=1;exitX=0.5;exitY=0;exitDx=0;exitDy=0;exitPerimeter=0;endArrow=none;endFill=0;" edge="1" parent="1" source="0H6CYzsqwwpuN_xPtlE3-1" target="0H6CYzsqwwpuN_xPtlE3-2">
          <mxGeometry relative="1" as="geometry" />
        </mxCell>
        <mxCell id="0H6CYzsqwwpuN_xPtlE3-18" style="edgeStyle=orthogonalEdgeStyle;rounded=0;orthogonalLoop=1;jettySize=auto;html=1;exitX=1;exitY=0.3333333333333333;exitDx=0;exitDy=0;exitPerimeter=0;entryX=0;entryY=0.5;entryDx=0;entryDy=0;endArrow=none;endFill=0;" edge="1" parent="1" source="0H6CYzsqwwpuN_xPtlE3-1" target="0H6CYzsqwwpuN_xPtlE3-5">
          <mxGeometry relative="1" as="geometry" />
        </mxCell>
        <mxCell id="0H6CYzsqwwpuN_xPtlE3-19" style="edgeStyle=orthogonalEdgeStyle;rounded=0;orthogonalLoop=1;jettySize=auto;html=1;exitX=1;exitY=1;exitDx=0;exitDy=0;exitPerimeter=0;entryX=0;entryY=0.5;entryDx=0;entryDy=0;endArrow=none;endFill=0;" edge="1" parent="1" source="0H6CYzsqwwpuN_xPtlE3-1" target="0H6CYzsqwwpuN_xPtlE3-6">
          <mxGeometry relative="1" as="geometry" />
        </mxCell>
        <mxCell id="0H6CYzsqwwpuN_xPtlE3-1" value="Data Scientist" style="shape=umlActor;verticalLabelPosition=bottom;verticalAlign=top;html=1;outlineConnect=0;" vertex="1" parent="1">
          <mxGeometry x="80" y="110" width="30" height="60" as="geometry" />
        </mxCell>
        <mxCell id="0H6CYzsqwwpuN_xPtlE3-2" value="Train" style="ellipse;whiteSpace=wrap;html=1;" vertex="1" parent="1">
          <mxGeometry x="200" y="210" width="140" height="70" as="geometry" />
        </mxCell>
        <mxCell id="0H6CYzsqwwpuN_xPtlE3-5" value="Predict" style="ellipse;whiteSpace=wrap;html=1;" vertex="1" parent="1">
          <mxGeometry x="200" y="320" width="120" height="70" as="geometry" />
        </mxCell>
        <mxCell id="0H6CYzsqwwpuN_xPtlE3-6" value="Score" style="ellipse;whiteSpace=wrap;html=1;" vertex="1" parent="1">
          <mxGeometry x="200" y="430" width="140" height="70" as="geometry" />
        </mxCell>
        <mxCell id="0H6CYzsqwwpuN_xPtlE3-7" value="Train/Test Split" style="ellipse;whiteSpace=wrap;html=1;" vertex="1" parent="1">
          <mxGeometry x="320" y="90" width="140" height="70" as="geometry" />
        </mxCell>
        <mxCell id="0H6CYzsqwwpuN_xPtlE3-11" value="Extends" style="endArrow=block;endSize=16;endFill=0;html=1;dashed=1;dashPattern=1 1;" edge="1" parent="1" source="0H6CYzsqwwpuN_xPtlE3-7" target="0H6CYzsqwwpuN_xPtlE3-2">
          <mxGeometry width="160" relative="1" as="geometry">
            <mxPoint x="490" y="400" as="sourcePoint" />
            <mxPoint x="650" y="400" as="targetPoint" />
          </mxGeometry>
        </mxCell>
        <mxCell id="0H6CYzsqwwpuN_xPtlE3-33" value="Login" style="ellipse;whiteSpace=wrap;html=1;" vertex="1" parent="1">
          <mxGeometry x="535" y="320" width="140" height="70" as="geometry" />
        </mxCell>
        <mxCell id="0H6CYzsqwwpuN_xPtlE3-34" value="Use" style="endArrow=open;endSize=12;dashed=1;html=1;" edge="1" parent="1" source="0H6CYzsqwwpuN_xPtlE3-2" target="0H6CYzsqwwpuN_xPtlE3-33">
          <mxGeometry width="160" relative="1" as="geometry">
            <mxPoint x="500" y="290" as="sourcePoint" />
            <mxPoint x="660" y="290" as="targetPoint" />
            <Array as="points" />
          </mxGeometry>
        </mxCell>
        <mxCell id="0H6CYzsqwwpuN_xPtlE3-36" value="Use" style="endArrow=open;endSize=12;dashed=1;html=1;" edge="1" parent="1" source="0H6CYzsqwwpuN_xPtlE3-5" target="0H6CYzsqwwpuN_xPtlE3-33">
          <mxGeometry width="160" relative="1" as="geometry">
            <mxPoint x="560" y="400" as="sourcePoint" />
            <mxPoint x="720" y="400" as="targetPoint" />
          </mxGeometry>
        </mxCell>
        <mxCell id="0H6CYzsqwwpuN_xPtlE3-37" value="Use" style="endArrow=open;endSize=12;dashed=1;html=1;" edge="1" parent="1" source="0H6CYzsqwwpuN_xPtlE3-6" target="0H6CYzsqwwpuN_xPtlE3-33">
          <mxGeometry width="160" relative="1" as="geometry">
            <mxPoint x="560" y="400" as="sourcePoint" />
            <mxPoint x="720" y="400" as="targetPoint" />
          </mxGeometry>
        </mxCell>
        <mxCell id="0H6CYzsqwwpuN_xPtlE3-43" value="" style="edgeStyle=orthogonalEdgeStyle;rounded=0;orthogonalLoop=1;jettySize=auto;html=1;endArrow=none;endFill=0;" edge="1" parent="1" source="0H6CYzsqwwpuN_xPtlE3-39" target="0H6CYzsqwwpuN_xPtlE3-42">
          <mxGeometry relative="1" as="geometry" />
        </mxCell>
        <mxCell id="0H6CYzsqwwpuN_xPtlE3-45" value="" style="edgeStyle=orthogonalEdgeStyle;rounded=0;orthogonalLoop=1;jettySize=auto;html=1;endArrow=none;endFill=0;" edge="1" parent="1" source="0H6CYzsqwwpuN_xPtlE3-39" target="0H6CYzsqwwpuN_xPtlE3-44">
          <mxGeometry relative="1" as="geometry">
            <Array as="points">
              <mxPoint x="125" y="820" />
            </Array>
          </mxGeometry>
        </mxCell>
        <mxCell id="0H6CYzsqwwpuN_xPtlE3-39" value="Database Administrator" style="shape=umlActor;verticalLabelPosition=bottom;verticalAlign=top;html=1;" vertex="1" parent="1">
          <mxGeometry x="110" y="670" width="30" height="60" as="geometry" />
        </mxCell>
        <mxCell id="0H6CYzsqwwpuN_xPtlE3-42" value="Grants rigths" style="ellipse;whiteSpace=wrap;html=1;verticalAlign=middle;" vertex="1" parent="1">
          <mxGeometry x="260" y="660" width="120" height="80" as="geometry" />
        </mxCell>
        <mxCell id="0H6CYzsqwwpuN_xPtlE3-44" value="Manages Database" style="ellipse;whiteSpace=wrap;html=1;verticalAlign=middle;" vertex="1" parent="1">
          <mxGeometry x="260" y="780" width="120" height="80" as="geometry" />
        </mxCell>
        <mxCell id="0H6CYzsqwwpuN_xPtlE3-46" value="Data Scientist" style="shape=umlActor;verticalLabelPosition=bottom;verticalAlign=top;html=1;" vertex="1" parent="1">
          <mxGeometry x="540" y="670" width="30" height="60" as="geometry" />
        </mxCell>
        <mxCell id="0H6CYzsqwwpuN_xPtlE3-47" value="returns rights" style="html=1;verticalAlign=bottom;endArrow=open;dashed=1;endSize=8;exitX=1;exitY=0.5;exitDx=0;exitDy=0;entryX=0.333;entryY=0.5;entryDx=0;entryDy=0;entryPerimeter=0;" edge="1" parent="1" source="0H6CYzsqwwpuN_xPtlE3-42" target="0H6CYzsqwwpuN_xPtlE3-46">
          <mxGeometry relative="1" as="geometry">
            <mxPoint x="410" y="760" as="sourcePoint" />
            <mxPoint x="330" y="760" as="targetPoint" />
          </mxGeometry>
        </mxCell>
        <mxCell id="0H6CYzsqwwpuN_xPtlE3-61" style="edgeStyle=orthogonalEdgeStyle;rounded=0;orthogonalLoop=1;jettySize=auto;html=1;exitX=0.5;exitY=0;exitDx=0;exitDy=0;exitPerimeter=0;endArrow=none;endFill=0;" edge="1" parent="1" source="0H6CYzsqwwpuN_xPtlE3-49" target="0H6CYzsqwwpuN_xPtlE3-50">
          <mxGeometry relative="1" as="geometry" />
        </mxCell>
        <mxCell id="0H6CYzsqwwpuN_xPtlE3-63" style="edgeStyle=orthogonalEdgeStyle;rounded=0;orthogonalLoop=1;jettySize=auto;html=1;exitX=1;exitY=0.3333333333333333;exitDx=0;exitDy=0;exitPerimeter=0;endArrow=none;endFill=0;" edge="1" parent="1" source="0H6CYzsqwwpuN_xPtlE3-49" target="0H6CYzsqwwpuN_xPtlE3-51">
          <mxGeometry relative="1" as="geometry" />
        </mxCell>
        <mxCell id="0H6CYzsqwwpuN_xPtlE3-64" style="edgeStyle=orthogonalEdgeStyle;rounded=0;orthogonalLoop=1;jettySize=auto;html=1;exitX=1;exitY=1;exitDx=0;exitDy=0;exitPerimeter=0;entryX=0;entryY=0.5;entryDx=0;entryDy=0;endArrow=none;endFill=0;" edge="1" parent="1" source="0H6CYzsqwwpuN_xPtlE3-49" target="0H6CYzsqwwpuN_xPtlE3-54">
          <mxGeometry relative="1" as="geometry" />
        </mxCell>
        <mxCell id="0H6CYzsqwwpuN_xPtlE3-49" value="Software Engineer" style="shape=umlActor;verticalLabelPosition=bottom;verticalAlign=top;html=1;" vertex="1" parent="1">
          <mxGeometry x="120" y="1045" width="30" height="60" as="geometry" />
        </mxCell>
        <mxCell id="0H6CYzsqwwpuN_xPtlE3-50" value="Develops Model" style="ellipse;whiteSpace=wrap;html=1;" vertex="1" parent="1">
          <mxGeometry x="240" y="980" width="140" height="70" as="geometry" />
        </mxCell>
        <mxCell id="0H6CYzsqwwpuN_xPtlE3-51" value="Expands architecture" style="ellipse;whiteSpace=wrap;html=1;" vertex="1" parent="1">
          <mxGeometry x="240" y="1070" width="140" height="70" as="geometry" />
        </mxCell>
        <mxCell id="0H6CYzsqwwpuN_xPtlE3-54" value="Pull requests" style="ellipse;whiteSpace=wrap;html=1;" vertex="1" parent="1">
          <mxGeometry x="240" y="1160" width="140" height="70" as="geometry" />
        </mxCell>
        <mxCell id="0H6CYzsqwwpuN_xPtlE3-57" value="Grants requests" style="ellipse;whiteSpace=wrap;html=1;" vertex="1" parent="1">
          <mxGeometry x="450" y="1160" width="140" height="70" as="geometry" />
        </mxCell>
        <mxCell id="0H6CYzsqwwpuN_xPtlE3-58" value="Extends" style="endArrow=block;endSize=16;endFill=0;html=1;" edge="1" parent="1" source="0H6CYzsqwwpuN_xPtlE3-57" target="0H6CYzsqwwpuN_xPtlE3-54">
          <mxGeometry width="160" relative="1" as="geometry">
            <mxPoint x="230" y="1210" as="sourcePoint" />
            <mxPoint x="390" y="1210" as="targetPoint" />
          </mxGeometry>
        </mxCell>
        <mxCell id="0H6CYzsqwwpuN_xPtlE3-60" style="edgeStyle=orthogonalEdgeStyle;rounded=0;orthogonalLoop=1;jettySize=auto;html=1;exitX=0;exitY=0.3333333333333333;exitDx=0;exitDy=0;exitPerimeter=0;endArrow=none;endFill=0;" edge="1" parent="1" source="0H6CYzsqwwpuN_xPtlE3-59" target="0H6CYzsqwwpuN_xPtlE3-57">
          <mxGeometry relative="1" as="geometry" />
        </mxCell>
        <mxCell id="0H6CYzsqwwpuN_xPtlE3-59" value="SANElib Dev Team" style="shape=umlActor;verticalLabelPosition=bottom;verticalAlign=top;html=1;" vertex="1" parent="1">
          <mxGeometry x="680" y="980" width="30" height="60" as="geometry" />
        </mxCell>
      </root>
    </mxGraphModel>
  </diagram>
</mxfile>
